<?xml version="1.0" encoding="UTF-8"?>
<svg xmlns="http://www.w3.org/2000/svg" width="203" height="60" viewBox="0 0 203 60" fill="none">
  <g clip-path="url(#clip0_1203_11149)">
    <path fill-rule="evenodd" clip-rule="evenodd" d="M23.687 42.2598C24.8243 42.6093 25.9692 42.9242 27.1255 43.2007C25.95 42.8935 24.8013 42.5785 23.687 42.2598Z" fill="white"></path>
    <path fill-rule="evenodd" clip-rule="evenodd" d="M68.5834 2.10843C67.7257 0.491477 65.9643 -0.384211 64.6471 0.161174C63.3299 0.706559 62.9546 2.46178 63.8085 4.07873C64.6624 5.69952 66.42 6.57136 67.741 6.02598C69.062 5.4806 69.4373 3.72538 68.5834 2.10843ZM115.858 52.4682C83.5207 52.4682 54.2051 49.4647 32.8272 44.5908C40.7994 39.8437 53.424 31.6975 56.6979 29.635C59.9641 27.5725 67.1054 27.0156 66.1213 29.1319C64.6394 32.312 58.7809 36.6213 56.1618 38.6761C55.0092 39.5787 55.553 41.4222 57.008 41.5605C57.0616 41.5605 57.1114 41.5682 57.165 41.5682C57.4675 41.5682 57.7624 41.4837 58.0189 41.3185C59.9986 40.0511 68.3269 34.3629 71.2063 29.8654C74.4075 24.8533 68.7902 23.6895 65.2291 23.5321C65.2291 23.5321 69.0812 20.0716 72.6959 14.7483C72.9984 14.3028 73.3928 13.9341 73.925 13.9801C77.3712 14.2759 86.0901 14.1223 87.1086 5.70336C87.189 5.03123 86.5534 4.47048 85.8795 4.4628H85.8565C85.2821 4.4628 84.792 4.86608 84.658 5.43067C83.0038 12.5207 68.7059 9.49417 63.8813 8.65304C61.3081 8.20752 58.7005 7.97707 56.089 7.96171C48.8673 8.2997 44.9234 9.1293 43.2768 9.56714C42.7293 9.71309 42.377 10.2316 42.4268 10.7962C42.4766 11.403 42.982 11.8524 43.5755 11.8524C43.6062 11.8524 43.6368 11.8524 43.6674 11.8524C48.1781 11.5106 52.7041 11.4721 57.2186 11.7333C57.2186 11.7333 67.9286 12.3901 60.7529 17.3715C43.8589 18.8118 21.3629 22.9636 14.7615 25.7482C-5.67825 32.8074 -2.16696 41.9177 8.89532 47.4599C27.6005 55.9709 56.6519 60.0037 97.7152 60.0037C138.779 60.0037 177.135 54.6574 201.986 46.8607C202.591 46.6687 203 46.1041 203 45.4665C203 44.5217 202.123 43.8265 201.208 44.0454C179.65 49.2381 149.381 52.4682 115.858 52.4682ZM27.4665 43.2811C27.3707 43.2581 27.2712 43.235 27.1755 43.212C27.1563 43.212 27.141 43.2043 27.1257 43.2005C25.9693 42.9239 24.8244 42.609 23.6872 42.2595C23.6603 42.248 23.6335 42.2403 23.6067 42.2365C20.0533 41.1457 16.6071 39.7208 13.3103 37.9771C6.27621 34.0518 15.9102 30.1727 26.8845 26.9196C37.0124 24.089 47.3357 22.0188 57.7738 20.7283C48.8367 29.1818 39.195 36.8479 28.9522 43.646C28.4544 43.5193 27.9604 43.4002 27.4665 43.2811Z" fill="white"></path>
    <path d="M97.2514 39.6099L95.9648 46.1046L97.2667 39.583C97.2667 39.583 97.2553 39.5984 97.2514 39.6099Z" fill="white"></path>
    <path d="M87.3341 28.8289C87.292 28.7598 87.3112 28.6868 87.3839 28.6177L94.6133 19.2347C95.471 18.1209 94.6784 16.5078 93.2769 16.5078C92.7523 16.5078 92.2545 16.7536 91.9367 17.1723L85.6302 25.426C85.5268 25.5681 85.454 25.5681 85.4196 25.426L82.6243 17.829C82.3333 17.0378 81.5828 16.5155 80.7442 16.5155C79.3428 16.5155 78.374 17.9212 78.8718 19.2347L82.4099 28.6215C82.429 28.6676 82.4099 28.7406 82.3601 28.8327L75.0236 38.2925C74.162 39.4024 74.9508 41.0194 76.3523 41.0194C76.873 41.0194 77.3631 40.7774 77.6848 40.3665L84.11 32.0666C84.1904 31.9245 84.2594 31.9245 84.3206 32.0666L87.1963 39.7289C87.4873 40.5086 88.2301 41.0232 89.0611 41.0232C90.4587 41.0232 91.4198 39.6214 90.9258 38.3117L87.3303 28.8366L87.3341 28.8289Z" fill="white"></path>
    <path d="M121.149 22.791C119.376 22.791 117.768 23.2634 116.332 24.2121C114.896 25.1608 113.785 26.4551 113.008 28.0912C112.514 29.0514 112.127 30.3265 111.84 31.9204C111.699 32.5772 111.599 33.2532 111.545 33.956C111.469 34.9854 111.515 35.8879 111.691 36.6599C111.974 38.1348 112.648 39.2831 113.705 40.1012C114.762 40.9193 116.179 41.3303 117.952 41.3303C119.376 41.3303 120.701 40.9846 122.007 40.4891C122.868 40.1588 123.684 39.5789 124.315 39.045C125.028 38.442 125.077 37.3551 124.434 36.6753C123.848 36.0608 122.891 35.9955 122.236 36.5332C121.474 37.1554 120.326 37.8198 118.886 37.8198C116.81 37.8198 115.65 36.9403 115.405 35.258C115.355 35.0007 115.344 34.6973 115.371 34.344C115.394 34.0636 115.42 33.8408 115.455 33.6757C115.463 33.5604 115.528 33.499 115.643 33.499H125.637C126.238 33.499 126.755 33.0688 126.862 32.4735C127.019 31.6093 127.218 30.4341 127.26 29.9194C127.62 25.1684 125.583 22.791 121.149 22.791ZM123.4 29.5661C123.377 29.8695 123.347 30.1153 123.308 30.3035C123.301 30.4226 123.236 30.4802 123.121 30.4802H116.225C116.106 30.4802 116.079 30.4226 116.133 30.3035C116.294 29.6967 116.485 29.1782 116.707 28.7595C117.094 27.9875 117.599 27.3845 118.227 26.9505C118.855 26.5165 119.602 26.3015 120.463 26.3015C121.375 26.3015 122.079 26.5357 122.581 27.0043C123.083 27.4729 123.358 28.1296 123.412 28.9708C123.427 29.0629 123.423 29.2627 123.4 29.5661Z" fill="white"></path>
    <path d="M177.131 24.1583C176.055 23.2442 174.657 22.7871 172.926 22.7871C171.107 22.7871 169.465 23.2442 168.01 24.1583C166.551 25.0723 165.387 26.3475 164.514 27.9875C163.932 29.1819 163.491 30.5147 163.193 31.9895C163.078 32.5733 162.997 33.184 162.948 33.8139C162.89 34.5628 162.894 35.2887 162.955 35.9916C163.154 37.6546 163.801 38.9528 164.9 39.8899C165.995 40.8271 167.431 41.2956 169.204 41.2956C170.977 41.2956 172.559 40.8232 174.021 39.8745C175.48 38.9259 176.637 37.62 177.487 35.957C178.118 34.7164 178.57 33.3799 178.842 31.9549C178.957 31.3481 179.037 30.7605 179.08 30.1997C179.145 29.3586 179.129 28.6097 179.041 27.9529C178.838 26.3359 178.199 25.0723 177.123 24.1583H177.131ZM175.132 30.1997C175.109 30.5262 175.013 31.1369 174.852 32.0241C174.649 33.1725 174.339 34.1557 173.926 34.9738C173.485 35.8648 172.911 36.5523 172.21 37.0439C171.509 37.5355 170.747 37.7813 169.932 37.7813C169.043 37.7813 168.339 37.5355 167.818 37.0439C167.294 36.5523 166.987 35.861 166.892 34.9738C166.88 34.5052 166.892 34.0942 166.914 33.7447C166.957 33.184 167.037 32.6079 167.152 32.0241C167.374 30.9487 167.68 29.9654 168.075 29.0744C168.538 28.1833 169.124 27.4997 169.825 27.0196C170.525 26.5395 171.299 26.3014 172.137 26.3014C172.976 26.3014 173.696 26.5433 174.217 27.0196C174.741 27.4997 175.04 28.1833 175.109 29.0744C175.155 29.3778 175.162 29.7542 175.128 30.1997H175.132Z" fill="white"></path>
    <path d="M155.672 22.791C153.899 22.791 152.291 23.2634 150.855 24.2121C149.419 25.1608 148.309 26.4551 147.532 28.0912C147.038 29.0514 146.651 30.3265 146.364 31.9204C146.222 32.5772 146.122 33.2532 146.069 33.956C145.992 34.9854 146.038 35.8879 146.214 36.6599C146.498 38.1348 147.172 39.2831 148.228 40.1012C149.285 40.9193 150.702 41.3303 152.475 41.3303C153.899 41.3303 155.224 40.9846 156.53 40.4891C157.392 40.1588 158.207 39.5789 158.839 39.045C159.551 38.442 159.601 37.3551 158.958 36.6753C158.372 36.0608 157.415 35.9955 156.76 36.5332C155.998 37.1554 154.849 37.8198 153.409 37.8198C151.334 37.8198 150.174 36.9403 149.929 35.258C149.879 35.0007 149.867 34.6973 149.894 34.344C149.917 34.0636 149.944 33.8408 149.978 33.6757C149.986 33.5604 150.051 33.499 150.166 33.499H160.16C160.761 33.499 161.278 33.0688 161.385 32.4735C161.542 31.6093 161.741 30.4341 161.784 29.9194C162.143 25.1684 160.106 22.791 155.672 22.791ZM157.924 29.5661C157.901 29.8695 157.87 30.1153 157.832 30.3035C157.824 30.4226 157.759 30.4802 157.644 30.4802H150.748C150.629 30.4802 150.603 30.4226 150.656 30.3035C150.817 29.6967 151.008 29.1782 151.231 28.7595C151.617 27.9875 152.123 27.3845 152.751 26.9505C153.379 26.5165 154.125 26.3015 154.987 26.3015C155.898 26.3015 156.603 26.5357 157.104 27.0043C157.606 27.4729 157.882 28.1296 157.935 28.9708C157.951 29.0629 157.947 29.2627 157.924 29.5661Z" fill="white"></path>
    <path d="M195.162 24.1928C194.278 23.2557 193.006 22.7871 191.348 22.7871C189.583 22.7871 188.151 23.3479 187.033 24.4501L186.631 24.8342C186.577 24.8765 186.501 24.8573 186.485 24.7958L186.39 24.4501C186.156 23.6628 185.436 23.0713 184.552 23.0713C183.667 23.0713 182.832 23.7242 182.656 24.6383C182.633 24.7574 182.61 24.8803 182.587 25.0109L179.869 38.6839C179.627 39.8899 180.55 41.0191 181.775 41.0191C182.706 41.0191 183.506 40.3585 183.686 39.4444L185.555 29.8886C185.777 28.8132 186.256 27.9452 186.995 27.2885C187.734 26.6317 188.58 26.3052 189.537 26.3052C190.399 26.3052 191.061 26.5741 191.524 27.1118C191.984 27.6495 192.179 28.3754 192.11 29.2895C192.087 29.5699 192.06 29.7811 192.026 29.9232L190.295 38.6916C190.058 39.8976 190.977 41.0229 192.202 41.0229H192.206C193.136 41.0229 193.937 40.3623 194.117 39.4482L196.15 29.0821C196.23 28.6135 196.28 28.2755 196.295 28.0643C196.422 26.4243 196.039 25.1376 195.154 24.2005L195.162 24.1928Z" fill="white"></path>
    <path d="M108.513 24.0891C107.575 23.2211 106.303 22.7871 104.691 22.7871C103.21 22.7871 101.709 23.3363 100.506 24.5923L100.276 24.8304C100.223 24.8688 100.154 24.8496 100.139 24.7958L100.047 24.454C99.8131 23.6666 99.0971 23.0713 98.2088 23.0713C97.3204 23.0713 96.4895 23.7242 96.3133 24.6383C95.8117 27.2846 94.797 32.5733 94.3414 34.8317C93.8053 37.5048 92.7982 42.4363 92.2009 45.3438C92.1741 45.4743 92.1626 45.6049 92.1626 45.7317C92.1626 46.7687 93.0012 47.652 94.081 47.652C95 47.652 95.7849 47.003 95.9649 46.1042L97.2515 39.6095C97.2515 39.6095 97.2591 39.5903 97.2668 39.5827C97.2898 39.5289 97.3242 39.4905 97.3663 39.4713C97.4161 39.4482 97.4468 39.4598 97.4697 39.5058C98.2164 40.7003 99.3996 41.2956 101.008 41.2956C102.616 41.2956 104.132 40.8616 105.415 39.9975C106.694 39.1294 107.728 37.9235 108.524 36.3795C109.152 35.162 109.623 33.7332 109.937 32.0971C110.079 31.4403 110.179 30.7259 110.24 29.9539C110.301 29.1589 110.286 28.4061 110.198 27.7071C110.014 26.1593 109.451 24.9533 108.513 24.0891ZM106.173 30.4455C106.139 30.9372 106.062 31.4633 105.951 32.0241C105.607 33.7793 104.982 35.2081 104.083 36.3103C103.286 37.2936 102.279 37.7852 101.065 37.7852C99.9663 37.7852 99.2273 37.2705 98.8367 36.2412C98.5802 35.6075 98.4959 34.751 98.5763 33.6756C98.6146 33.1609 98.6912 32.6117 98.8061 32.0241C99.1775 30.2228 99.7136 28.8632 100.414 27.9529C101.222 26.8276 102.222 26.2668 103.413 26.2668C104.695 26.2668 105.538 26.8391 105.94 27.9875C106.173 28.6404 106.25 29.4623 106.173 30.4455Z" fill="white"></path>
    <path d="M146.54 18.309C146.54 17.272 145.701 16.3887 144.622 16.3887C143.703 16.3887 142.918 17.0378 142.738 17.9365L141.451 24.4312C141.451 24.4312 141.443 24.4504 141.436 24.4581C141.413 24.5118 141.378 24.5502 141.336 24.5694C141.286 24.5925 141.256 24.581 141.233 24.5349C140.486 23.3404 139.303 22.7451 137.695 22.7451C136.087 22.7451 134.57 23.1791 133.287 24.0433C132.009 24.9113 130.975 26.1173 130.178 27.6612C129.55 28.8787 129.079 30.3075 128.765 31.9437C128.624 32.6004 128.524 33.3148 128.463 34.0868C128.402 34.8818 128.417 35.6346 128.505 36.3336C128.689 37.8814 129.252 39.0874 130.19 39.9516C131.128 40.8196 132.399 41.2536 134.011 41.2536C135.493 41.2536 136.994 40.7044 138.196 39.4485L138.426 39.2103C138.48 39.1681 138.549 39.1911 138.564 39.2449L138.656 39.5867C138.889 40.3741 139.605 40.9694 140.494 40.9694C141.382 40.9694 142.213 40.3165 142.389 39.4024C142.891 36.7561 143.906 31.4674 144.361 29.2091C144.897 26.5359 145.904 21.6044 146.502 18.697C146.529 18.5664 146.54 18.4358 146.54 18.309ZM140.126 30.369C140.088 30.8836 140.011 31.4328 139.896 32.0205C139.525 33.8218 138.989 35.1814 138.288 36.0917C137.48 37.217 136.481 37.7777 135.29 37.7777C134.007 37.7777 133.165 37.2055 132.763 36.0571C132.529 35.4042 132.453 34.5822 132.529 33.599C132.564 33.1074 132.64 32.5812 132.751 32.0205C133.096 30.2653 133.72 28.8365 134.62 27.7342C135.416 26.751 136.424 26.2594 137.637 26.2594C138.736 26.2594 139.475 26.774 139.866 27.8033C140.122 28.4371 140.207 29.2936 140.126 30.369Z" fill="white"></path>
  </g>
  <defs>
    <clipPath id="clip0_1203_11149">
      <rect width="203" height="60" fill="white"></rect>
    </clipPath>
  </defs>
</svg>
